<?xml version="1.0" encoding="UTF-8" standalone="no"?><svg xmlns="http://www.w3.org/2000/svg" xmlns:xlink="http://www.w3.org/1999/xlink" contentStyleType="text/css" height="770px" preserveAspectRatio="none" style="width:923px;height:770px;background:#FFFFFF;" version="1.1" viewBox="0 0 923 770" width="923px" zoomAndPan="magnify"><defs/><g><!--cluster client1--><g id="cluster_client1"><rect fill="none" height="100" rx="2.5" ry="2.5" style="stroke:#181818;stroke-width:1.0;" width="108" x="369.5373" y="7"/><text fill="#000000" font-family="sans-serif" font-size="14" font-weight="bold" lengthAdjust="spacing" textLength="59" x="394.0373" y="23.5332">Browser</text></g><!--cluster webserver--><g id="cluster_webserver"><rect fill="none" height="100" rx="2.5" ry="2.5" style="stroke:#181818;stroke-width:1.0;" width="130" x="358.5373" y="170"/><text fill="#000000" font-family="sans-serif" font-size="14" font-weight="bold" lengthAdjust="spacing" textLength="18" x="414.5373" y="186.5332">??</text></g><!--cluster localhost--><g id="cluster_localhost"><rect fill="none" height="436.5" rx="2.5" ry="2.5" style="stroke:#181818;stroke-width:1.0;" width="575" x="236.5373" y="328"/><text fill="#000000" font-family="sans-serif" font-size="14" font-weight="bold" lengthAdjust="spacing" textLength="18" x="515.0373" y="344.5332">??</text></g><!--cluster backendbox--><g id="cluster_backendbox"><rect fill="none" height="248" rx="2.5" ry="2.5" style="stroke:#181818;stroke-width:1.0;" width="186" x="260.5373" y="372"/><text fill="#000000" font-family="sans-serif" font-size="14" font-weight="bold" lengthAdjust="spacing" textLength="122" x="292.5373" y="388.5332">Backend Process</text></g><!--cluster keeper--><g id="cluster_keeper"><rect fill="none" height="100" rx="2.5" ry="2.5" style="stroke:#181818;stroke-width:1.0;" width="317" x="470.5373" y="520"/><text fill="#000000" font-family="sans-serif" font-size="14" font-weight="bold" lengthAdjust="spacing" textLength="119" x="569.5373" y="536.5332">Database keeper</text></g><!--cluster cloudstorage--><g id="cluster_cloudstorage"><path d="M22.2909,166.5216 C25.5717,158.7802 30.4179,158.0221 35.6245,164.7465 C38.4778,157.5146 45.0587,157.2973 48.8342,163.8636 C53.0053,156.9915 57.8554,157.2859 61.9765,163.9123 C65.7062,157.2986 70.9437,156.6272 75.5711,162.9705 C78.9143,156.8479 84.9488,157.4225 87.821,163.4455 C92.3485,157.8262 96.7274,157.1341 101.3076,163.3857 C105.9617,158.7718 110.5173,157.9984 113.5273,165.1005 C117.2278,158.9521 122.4611,158.6495 126.6696,164.5463 C130.7177,159.8587 136.1093,160.0362 138.5976,166.2525 C146.5486,157.6935 156.2502,160.909 158.5373,172 C159.3082,171.9515 159.7422,172.5319 159.4833,173.2579 C166.4123,175.537 167.514,180.7549 161.7906,185.432 C169.5345,188.8633 170.5024,193.9758 163.5836,199.3025 C169.6083,201.8483 170.7252,207.9657 164.9336,211.789 C169.627,215.6152 170.4074,221.1126 163.9204,224.0121 C169.2551,229.6192 168.0118,234.4989 161.1901,237.6773 C166.8557,248.8774 163.9862,254.8491 151.5373,257 C151.8997,256.4842 152.4231,256.5582 152.6162,257.163 C150.19,264.5526 145.3676,264.9625 140.3199,259.7134 C136.8982,267.8209 131.7472,267.3764 125.977,262.2606 C121.9718,267.7217 118.4387,268.0192 114.248,262.4581 C110.7431,270.3261 105.1013,269.7993 100.3869,263.6545 C97.862,269.32 92.5395,270.8555 88.4891,265.2673 C84.5084,271.9748 79.6533,270.8227 75.5125,265.4391 C69.4594,270.9321 65.2137,269.3348 61.7666,262.527 C58.0442,268.6447 52.9711,268.3325 49.6495,262.1328 C43.6484,267.8443 38.5494,267.2011 34.7997,259.6181 C23.3326,266.556 17.3594,261.2746 14.5373,250 C15.627,250.0743 16.204,250.9075 15.4688,251.884 C9.3088,248.6096 9.121,242.5373 14.8949,238.7417 C8.7469,234.3351 8.7782,228.289 15.187,224.1335 C9.7162,221.1327 8.8439,215.3067 14.2267,211.482 C8.075,207.7611 7.1405,201.8751 14.2623,198.1898 C8.3401,194.2238 8.2143,190.5163 13.9393,186.2356 C6,175.2133 9.1242,168.7403 21.5373,165 C22.4248,165.1757 22.6636,165.7219 22.2909,166.5216 " fill="none" style="stroke:#181818;stroke-width:1.0;"/><text fill="#000000" font-family="sans-serif" font-size="14" font-weight="bold" lengthAdjust="spacing" textLength="100" x="36.5373" y="184.5332">Cloud Storage</text><text fill="#000000" font-family="sans-serif" font-size="14" font-weight="bold" lengthAdjust="spacing" textLength="108" x="32.5373" y="202.1426">«Google drive»</text></g><!--cluster server1--><g id="cluster_server1"><rect fill="none" height="116" rx="2.5" ry="2.5" style="stroke:#181818;stroke-width:1.0;" width="130" x="204.5373" y="162"/><text fill="#000000" font-family="sans-serif" font-size="14" font-weight="bold" lengthAdjust="spacing" textLength="18" x="260.5373" y="178.5332">??</text></g><!--entity client--><g id="elem_client"><rect fill="#F1F1F1" height="47.6094" rx="2.5" ry="2.5" style="stroke:#181818;stroke-width:0.5;" width="76" x="385.5373" y="43"/><rect fill="#F1F1F1" height="10" style="stroke:#181818;stroke-width:0.5;" width="15" x="441.5373" y="48"/><rect fill="#F1F1F1" height="2" style="stroke:#181818;stroke-width:0.5;" width="4" x="439.5373" y="50"/><rect fill="#F1F1F1" height="2" style="stroke:#181818;stroke-width:0.5;" width="4" x="439.5373" y="54"/><text fill="#000000" font-family="sans-serif" font-size="14" lengthAdjust="spacing" textLength="36" x="400.5373" y="77.5332">Client</text></g><!--entity webapp--><g id="elem_webapp"><rect fill="#F1F1F1" height="47.6094" rx="2.5" ry="2.5" style="stroke:#181818;stroke-width:0.5;" width="98" x="374.5373" y="206"/><rect fill="#F1F1F1" height="10" style="stroke:#181818;stroke-width:0.5;" width="15" x="452.5373" y="211"/><rect fill="#F1F1F1" height="2" style="stroke:#181818;stroke-width:0.5;" width="4" x="450.5373" y="213"/><rect fill="#F1F1F1" height="2" style="stroke:#181818;stroke-width:0.5;" width="4" x="450.5373" y="217"/><text fill="#000000" font-family="sans-serif" font-size="14" lengthAdjust="spacing" textLength="58" x="389.5373" y="240.5332">Web App</text></g><!--entity AnimeDB--><g id="elem_AnimeDB"><path d="M428.0373,694.5 C428.0373,684.5 467.5373,684.5 467.5373,684.5 C467.5373,684.5 507.0373,684.5 507.0373,694.5 L507.0373,738.7188 C507.0373,748.7188 467.5373,748.7188 467.5373,748.7188 C467.5373,748.7188 428.0373,748.7188 428.0373,738.7188 L428.0373,694.5 " fill="#F1F1F1" style="stroke:#181818;stroke-width:0.5;"/><path d="M428.0373,694.5 C428.0373,704.5 467.5373,704.5 467.5373,704.5 C467.5373,704.5 507.0373,704.5 507.0373,694.5 " fill="none" style="stroke:#181818;stroke-width:0.5;"/><text fill="#000000" font-family="sans-serif" font-size="14" lengthAdjust="spacing" textLength="58" x="438.0373" y="723.0332">AnimeDB</text><text fill="#000000" font-family="sans-serif" font-size="14" lengthAdjust="spacing" textLength="59" x="438.0373" y="740.6426">«SQLite»</text></g><!--entity localbackups--><g id="elem_localbackups"><rect fill="#F1F1F1" height="37.6094" rx="35" ry="35" style="stroke:#181818;stroke-width:0.5;" width="112" x="542.5373" y="697.5"/><text fill="#000000" font-family="sans-serif" font-size="14" lengthAdjust="spacing" textLength="92" x="552.5373" y="722.0332">Local Backups</text></g><!--entity backend--><g id="elem_backend"><rect fill="#F1F1F1" height="47.6094" rx="2.5" ry="2.5" style="stroke:#181818;stroke-width:0.5;" width="95" x="306.0373" y="408"/><rect fill="#F1F1F1" height="10" style="stroke:#181818;stroke-width:0.5;" width="15" x="381.0373" y="413"/><rect fill="#F1F1F1" height="2" style="stroke:#181818;stroke-width:0.5;" width="4" x="379.0373" y="415"/><rect fill="#F1F1F1" height="2" style="stroke:#181818;stroke-width:0.5;" width="4" x="379.0373" y="419"/><text fill="#000000" font-family="sans-serif" font-size="14" lengthAdjust="spacing" textLength="55" x="321.0373" y="442.5332">Backend</text></g><!--entity afc--><g id="elem_afc"><rect fill="#F1F1F1" height="47.6094" rx="2.5" ry="2.5" style="stroke:#181818;stroke-width:0.5;" width="153" x="277.0373" y="556"/><rect fill="#F1F1F1" height="10" style="stroke:#181818;stroke-width:0.5;" width="15" x="410.0373" y="561"/><rect fill="#F1F1F1" height="2" style="stroke:#181818;stroke-width:0.5;" width="4" x="408.0373" y="563"/><rect fill="#F1F1F1" height="2" style="stroke:#181818;stroke-width:0.5;" width="4" x="408.0373" y="567"/><text fill="#000000" font-family="sans-serif" font-size="14" lengthAdjust="spacing" textLength="113" x="292.0373" y="590.5332">Anime Facts Core</text></g><!--entity backup--><g id="elem_backup"><rect fill="#F1F1F1" height="47.6094" rx="2.5" ry="2.5" style="stroke:#181818;stroke-width:0.5;" width="127" x="487.0373" y="556"/><rect fill="#F1F1F1" height="10" style="stroke:#181818;stroke-width:0.5;" width="15" x="594.0373" y="561"/><rect fill="#F1F1F1" height="2" style="stroke:#181818;stroke-width:0.5;" width="4" x="592.0373" y="563"/><rect fill="#F1F1F1" height="2" style="stroke:#181818;stroke-width:0.5;" width="4" x="592.0373" y="567"/><text fill="#000000" font-family="sans-serif" font-size="14" lengthAdjust="spacing" textLength="87" x="502.0373" y="590.5332">Backup Script</text></g><!--entity sync--><g id="elem_sync"><rect fill="#F1F1F1" height="47.6094" rx="2.5" ry="2.5" style="stroke:#181818;stroke-width:0.5;" width="122" x="649.5373" y="556"/><rect fill="#F1F1F1" height="10" style="stroke:#181818;stroke-width:0.5;" width="15" x="751.5373" y="561"/><rect fill="#F1F1F1" height="2" style="stroke:#181818;stroke-width:0.5;" width="4" x="749.5373" y="563"/><rect fill="#F1F1F1" height="2" style="stroke:#181818;stroke-width:0.5;" width="4" x="749.5373" y="567"/><text fill="#000000" font-family="sans-serif" font-size="14" lengthAdjust="spacing" textLength="82" x="664.5373" y="590.5332">Synchronizer</text></g><!--entity remotebackups--><g id="elem_remotebackups"><rect fill="#F1F1F1" height="37.6094" rx="35" ry="35" style="stroke:#181818;stroke-width:0.5;" width="127" x="23.0373" y="211"/><text fill="#000000" font-family="sans-serif" font-size="14" lengthAdjust="spacing" textLength="107" x="33.0373" y="235.5332">Remote Backups</text></g><!--entity Database--><g id="elem_Database"><path d="M220.5373,208 C220.5373,198 269.5373,198 269.5373,198 C269.5373,198 318.5373,198 318.5373,208 L318.5373,252.2188 C318.5373,262.2188 269.5373,262.2188 269.5373,262.2188 C269.5373,262.2188 220.5373,262.2188 220.5373,252.2188 L220.5373,208 " fill="#F1F1F1" style="stroke:#181818;stroke-width:0.5;"/><path d="M220.5373,208 C220.5373,218 269.5373,218 269.5373,218 C269.5373,218 318.5373,218 318.5373,208 " fill="none" style="stroke:#181818;stroke-width:0.5;"/><text fill="#000000" font-family="sans-serif" font-size="14" lengthAdjust="spacing" textLength="61" x="230.5373" y="236.5332">Database</text><text fill="#000000" font-family="sans-serif" font-size="14" lengthAdjust="spacing" textLength="78" x="230.5373" y="254.1426">«MongoDB»</text></g><!--entity jikanapi--><g id="elem_jikanapi"><path d="M836.0592,692.3024 C838.0708,686.3673 843.7203,684.801 848.2737,689.3376 C850.0175,682.4048 854.5957,681.5547 859.8513,685.6513 C863.6241,679.7114 867.4403,678.9893 872.6163,684.0184 C876.9359,679.3529 881.9532,678.9786 884.601,685.7675 C889.913,680.747 895.5036,682.8923 896.3458,690.0709 C902.2148,685.5346 905.6484,687.3411 908.3996,693.5638 C915.0376,696.2566 915.6718,701.7911 910.0766,706.1179 C915.9671,710.8334 916.2056,714.8678 909.133,718.6036 C915.7041,722.4142 913.4703,728.1328 908.1969,731.0527 C913.9662,733.9974 913.9049,738.9698 908.0815,741.7901 C906.6627,748.5313 900.6628,750.2317 895.7444,745.5795 C894.1271,752.3043 888.7892,754.2028 883.6004,749.3143 C881.6043,755.5677 877.1645,755.7739 873.1485,751.2784 C867.9589,755.9687 863.0223,754.4943 860.4196,748.2635 C855.8564,753.3655 850.2808,751.5431 848.5614,745.293 C843.2605,751.0125 837.9908,749.8724 836.0378,742.1693 C829.417,738.7512 830.2743,734.9756 834.8715,730.4418 C829.4311,727.2977 830.0623,721.4627 834.9277,718.3665 C830.1266,714.32 828.8168,710.0597 835.3747,706.4389 C829.8622,702.1179 829.8697,696.0569 836.0592,692.3024 " fill="#F1F1F1" style="stroke:#181818;stroke-width:0.5;"/><text fill="#000000" font-family="sans-serif" font-size="14" lengthAdjust="spacing" textLength="57" x="843.0373" y="713.5332">Jikan API</text><text fill="#000000" font-family="sans-serif" font-size="14" lengthAdjust="spacing" textLength="53" x="843.0373" y="731.1426">«REST»</text></g><!--link webapp to backend--><g id="link_webapp_backend"><path d="M415.3673,254.33 C402.4573,291.22 377.3873,362.87 363.4573,402.65 " fill="none" id="webapp-to-backend" style="stroke:#181818;stroke-width:1.0;"/><polygon fill="#181818" points="361.6473,407.81,368.3795,400.6212,363.2883,403.0869,360.8226,397.9957,361.6473,407.81" style="stroke:#181818;stroke-width:1.0;"/><text fill="#000000" font-family="sans-serif" font-size="13" lengthAdjust="spacing" textLength="41" x="401.5373" y="308.4951">HTTPS</text></g><!--reverse link Database to backend--><g id="link_Database_backend"><path d="M284.6973,267.1 C301.8473,307.93 329.2573,373.2 343.7773,407.76 " fill="none" id="Database-backto-backend" style="stroke:#181818;stroke-width:1.0;"/><polygon fill="#181818" points="282.6573,262.25,282.4743,272.0972,284.6027,266.856,289.8439,268.9845,282.6573,262.25" style="stroke:#181818;stroke-width:1.0;"/><text fill="#000000" font-family="sans-serif" font-size="13" lengthAdjust="spacing" textLength="54" x="302.5373" y="308.4951">DB Driver</text></g><!--link backend to afc--><g id="link_backend_afc"><path d="M353.5373,456.13 C353.5373,481.76 353.5373,523.1 353.5373,550.66 " fill="none" id="backend-to-afc" style="stroke:#181818;stroke-width:1.0;stroke-dasharray:7.0,7.0;"/><polygon fill="#181818" points="353.5373,555.97,357.5373,546.97,353.5373,550.97,349.5373,546.97,353.5373,555.97" style="stroke:#181818;stroke-width:1.0;"/><text fill="#000000" font-family="sans-serif" font-size="13" lengthAdjust="spacing" textLength="34" x="354.5373" y="500.4951">linked</text></g><!--link afc to AnimeDB--><g id="link_afc_AnimeDB"><path d="M373.1373,604.12 C390.8873,625.07 417.3073,656.24 437.6873,680.28 " fill="none" id="afc-to-AnimeDB" style="stroke:#181818;stroke-width:1.0;"/><polygon fill="#181818" points="441.1573,684.38,438.3752,674.9323,437.9187,680.5707,432.2803,680.1141,441.1573,684.38" style="stroke:#181818;stroke-width:1.0;"/><text fill="#000000" font-family="sans-serif" font-size="13" lengthAdjust="spacing" textLength="72" x="414.5373" y="650.4951">SQLite3 API</text></g><!--link client to webapp--><g id="link_client_webapp"><path d="M423.5373,91.07 C423.5373,120 423.5373,169.58 423.5373,200.76 " fill="none" id="client-to-webapp" style="stroke:#181818;stroke-width:1.0;"/><polygon fill="#181818" points="423.5373,205.98,427.5373,196.98,423.5373,200.98,419.5373,196.98,423.5373,205.98" style="stroke:#181818;stroke-width:1.0;"/><text fill="#000000" font-family="sans-serif" font-size="13" lengthAdjust="spacing" textLength="41" x="424.5373" y="137.4951">HTTPS</text></g><!--link backup to AnimeDB--><g id="link_backup_AnimeDB"><path d="M536.2673,604.12 C523.3973,624.98 504.2673,655.98 489.4573,679.98 " fill="none" id="backup-to-AnimeDB" style="stroke:#181818;stroke-width:1.0;"/><polygon fill="#181818" points="486.7473,684.38,494.8792,678.8236,489.3742,680.1256,488.0722,674.6207,486.7473,684.38" style="stroke:#181818;stroke-width:1.0;"/><text fill="#000000" font-family="sans-serif" font-size="13" lengthAdjust="spacing" textLength="32" x="516.5373" y="650.4951">reads</text></g><!--link sync to AnimeDB--><g id="link_sync_AnimeDB"><path d="M681.7473,604.1 C655.0873,625.48 619.5373,654 619.5373,654 C619.5373,654 525.5373,684 525.5373,684 C525.5373,684 519.7273,687.15 511.7873,691.47 " fill="none" id="sync-to-AnimeDB" style="stroke:#181818;stroke-width:1.0;"/><polygon fill="#181818" points="507.1873,693.97,517.0058,693.1965,511.5828,691.5867,513.1926,686.1638,507.1873,693.97" style="stroke:#181818;stroke-width:1.0;"/><text fill="#000000" font-family="sans-serif" font-size="13" lengthAdjust="spacing" textLength="77" x="641.5373" y="650.4951">synchronizes</text></g><!--link sync to jikanapi--><g id="link_sync_jikanapi"><path d="M752.7873,604.01 C780.4573,619.08 811.5373,636 811.5373,636 C811.5373,636 828.4573,658.42 844.3273,679.44 " fill="none" id="sync-to-jikanapi" style="stroke:#181818;stroke-width:1.0;"/><polygon fill="#181818" points="847.4773,683.62,845.2555,674.025,844.4682,679.6269,838.8664,678.8396,847.4773,683.62" style="stroke:#181818;stroke-width:1.0;"/><text fill="#000000" font-family="sans-serif" font-size="13" lengthAdjust="spacing" textLength="81" x="824.5373" y="650.4951">HTTPS (fetch)</text></g><!--link backup to localbackups--><g id="link_backup_localbackups"><path d="M558.7873,604.12 C567.6373,628.91 581.5873,668.01 590.3973,692.68 " fill="none" id="backup-to-localbackups" style="stroke:#181818;stroke-width:1.0;"/><polygon fill="#181818" points="592.0873,697.41,592.8405,687.59,590.412,692.699,585.303,690.2705,592.0873,697.41" style="stroke:#181818;stroke-width:1.0;"/><text fill="#000000" font-family="sans-serif" font-size="13" lengthAdjust="spacing" textLength="34" x="576.5373" y="650.4951">writes</text></g><!--reverse link remotebackups to Database--><g id="link_remotebackups_Database"><path d="M155.4473,230 C177.0673,230 200.4773,230 220.4273,230 " fill="none" id="remotebackups-backto-Database" style="stroke:#181818;stroke-width:1.0;"/><polygon fill="#181818" points="150.2873,230,159.2873,234,155.2873,230,159.2873,226,150.2873,230" style="stroke:#181818;stroke-width:1.0;"/><text fill="#000000" font-family="sans-serif" font-size="13" lengthAdjust="spacing" textLength="34" x="168.2873" y="223.4951">writes</text></g><!--SRC=[RLF9Rjim4BtpAmO-jGS7A7eB0WUsbNI12xYHWHvQ7oXgRBEIIOAauxf1_hrSjRZHGH9dthmt6qt3XQAQ7c751TgBGb2olRJkG8X6PgdOjmYJXPPdWte2r01hEGhx0Lu8kEVdCXotlOUyZaBlxqFK6Ij7y8mwn_t02kPARPEJAlLsO2iPRG_Is1Gup8go1aKDQoqP6XFWLRHLya_21x64t0uGlNCk-17XaJ9hO2ar1XJTiO1u3U-QMbfHupG3k5Zy4dTtvVSLjpYR1Tra9zSv5ZcoGLIfW_7NvJTEyAIWP9ehswLvKZsYl0Xsq5BmlwW3m3X3IZ5yZ9MQxftaodSC8gFfUnW9ZUyoQ-MfXiaoVCeOvolw9ALFkjRyETSLe9dwPIpqX4TfSQIaW-b_gQ-yeGBcwozUvkcXt2JwtzvE5Nzhyd5VygBr8yWjzLJVfDZBOf7OiiSBnvs2wNIM9mwty7cpMPSadwSdvRpTX6wXM43XQzSTvEPcvbV1-ToTQB0c_k0vqxoT8wx1HrySYJSW099-rYIn9rUn6cbjY9_abSFqqnxuSxSoAxpReMM7zqFouQmTxgnTSePqHKvRt5a76msgm_q3]--></g></svg>